<svg width="52" height="37" viewBox="0 0 52 37" fill="none" xmlns="http://www.w3.org/2000/svg">
<path d="M40.9414 0.585754C41.7225 -0.19523 42.9885 -0.195273 43.7695 0.585754C44.5505 1.36679 44.5505 2.63285 43.7695 3.41388L11.2422 35.9412C10.4611 36.7219 9.19499 36.7221 8.41406 35.9412C7.63301 35.1602 7.63301 33.8932 8.41406 33.1121L40.9414 0.585754Z" fill="white"/>
<path d="M44.2041 9.3338C48.7921 11.6479 52 15.0157 52 19.0272C51.9998 23.0616 48.7552 26.4454 44.125 28.7606C39.4348 31.1056 33.0251 32.5272 26 32.5272C24.3739 32.5272 22.7808 32.4497 21.2344 32.3035L31.8926 21.6453C31.6822 24.1855 31.17 26.4924 30.4287 28.3143C35.1347 27.8656 39.2501 26.7253 42.3359 25.1824C46.5358 23.0825 47.9998 20.7338 48 19.0272C48 17.3205 46.536 14.972 42.3359 12.8719C41.9704 12.6891 41.59 12.5126 41.1963 12.3416L44.2041 9.3338Z" fill="white"/>
<path d="M26 5.52716C27.9491 5.52716 29.8509 5.63635 31.6816 5.84454L20.0381 17.4881C20.1797 14.5231 20.7253 11.8153 21.5703 9.7381C16.8647 10.187 12.7498 11.329 9.66406 12.8719C5.46398 14.972 4 17.3205 4 19.0272C4.00025 20.7338 5.46421 23.0825 9.66406 25.1824C10.246 25.4734 10.8654 25.7483 11.5176 26.0086L8.47656 29.0496C8.2734 28.9544 8.07217 28.8591 7.875 28.7606C3.24477 26.4454 0.000233143 23.0616 0 19.0272C0 14.9926 3.2447 11.609 7.875 9.29376C12.5652 6.94865 18.9749 5.52716 26 5.52716Z" fill="white"/>
</svg>
