<svg width="52" height="27" viewBox="0 0 52 27" fill="none" xmlns="http://www.w3.org/2000/svg">
<path fill-rule="evenodd" clip-rule="evenodd" d="M26 0C33.0251 0 39.4348 1.42149 44.125 3.7666C48.7554 6.08181 52 9.4654 52 13.5C52 17.5346 48.7554 20.9182 44.125 23.2334C39.4348 25.5785 33.0251 27 26 27C18.9749 27 12.5652 25.5785 7.875 23.2334C3.24461 20.9182 0 17.5346 0 13.5C0 9.4654 3.24461 6.08181 7.875 3.7666C12.5652 1.42149 18.9749 0 26 0ZM21.5703 4.21094C16.8647 4.65988 12.7498 5.80186 9.66406 7.34473C5.46385 9.44484 4 11.7933 4 13.5C4 15.2067 5.46385 17.5552 9.66406 19.6553C12.7497 21.1981 16.8646 22.3383 21.5703 22.7871C20.5812 20.3555 20 17.061 20 13.5C20 9.93833 20.5809 6.64281 21.5703 4.21094ZM30.4287 4.21094C31.4184 6.64267 32 9.938 32 13.5C32 17.0613 31.4181 20.3556 30.4287 22.7871C35.1348 22.3384 39.2501 21.1982 42.3359 19.6553C46.5361 17.5552 48 15.2067 48 13.5C48 11.7933 46.5361 9.44484 42.3359 7.34473C39.25 5.80175 35.1347 4.65981 30.4287 4.21094Z" fill="white"/>
</svg>
