<?xml version="1.0" encoding="UTF-8"?>
<svg id="Layer_2" data-name="Layer 2" xmlns="http://www.w3.org/2000/svg" xmlns:xlink="http://www.w3.org/1999/xlink" viewBox="0 0 1253.83 1079.69">
  <defs>
    <style>
      .cls-1 {
        fill: url(#linear-gradient);
      }
    </style>
    <linearGradient id="linear-gradient" x1="91.94" y1="178.24" x2="983.23" y2="1069.52" gradientUnits="userSpaceOnUse">
      <stop offset="0" stop-color="#69ad00"/>
      <stop offset="1" stop-color="#74f"/>
    </linearGradient>
  </defs>
  <g id="Layer_1-2" data-name="Layer 1">
    <path class="cls-1" d="M1253.83,1079.69h-599.53c-89.44,0-176.02-18.23-257.34-54.18-77.77-34.38-147.64-83.49-207.68-145.96-59.41-61.81-106.09-133.43-138.74-212.88C17,585.08,0,499.29,0,411.68c0-60.43,12.07-117.76,35.87-170.41,22.17-49.04,53.83-92.73,94.12-129.86C207.01,40.41,309.8,0,411.99,0s160.57,49.02,194.47,90.4c38.63,47.15,62.63,110.91,62.63,166.4,0,58.98-28.55,96.41-52.5,117.43-29.37,25.77-69.02,41.15-106.07,41.15-40.44,0-64.48-19.8-77.53-36.42-17.2-21.89-23.32-48.2-23.32-65.51,0-34.19,30.97-59.74,58.66-59.74,41.82,0,43.94,36.6,43.94,43.94,0,12.22-11.12,20.43-21.51,20.43v-5c6.75,0,16.51-5.49,16.51-15.43,0-6.5-1.88-38.94-38.94-38.94-24.82,0-53.66,23.91-53.66,54.74,0,40.25,29.74,96.93,95.85,96.93,73.86,0,153.57-58.72,153.57-153.57,0-101.67-80.13-251.79-252.11-251.79C216.26,5,5,160.29,5,411.68c0,365.59,291.28,663.02,649.3,663.02h599.53v5Z"/>
  </g>
</svg>