<svg width="669" height="1080" viewBox="0 0 669 1080" fill="none" xmlns="http://www.w3.org/2000/svg">
<path d="M197.794 764.481V784.035M197.794 764.481H178.265M197.794 764.481H256.382M197.794 784.035H197.648M197.794 784.035L197.794 823.107M197.648 784.035H178.265M197.648 784.035L197.648 823.107M178.265 784.035H159.236M178.265 784.035V764.481M178.265 764.481H159.236M159.236 784.035H158.735M159.236 784.035V764.481M159.236 784.035L159.236 823.107M158.735 784.035V764.481M158.735 784.035L158.735 823.107M158.735 764.481H159.236M158.735 764.481V666.855M159.236 764.481V666.855M197.648 823.107V823.144L159.236 823.144M197.648 823.107H159.236M197.648 823.107H197.794M159.236 823.144L158.735 823.144M159.236 823.144V823.107M158.735 823.144V823.107M158.735 823.144L2.63433 823.144M158.735 823.107H2.63433L2.63433 823.144M158.735 823.107H159.236M256.382 764.481L256.382 823.144M256.382 764.481L256.382 666.855M256.382 823.144H256.248M256.382 823.144L256.382 1077.5H666.5L666.5 666.855M256.248 823.144H197.794V823.107M256.248 823.144V823.107H197.794M256.248 823.144L256.248 1077.5H2.63431L2.63433 823.144M256.382 666.855V666.708H159.236M256.382 666.855H666.5M256.382 666.855H159.236M158.735 666.855V666.708M158.735 666.855H159.236M158.735 666.855H2.50006M158.735 666.708H159.236M158.735 666.708H2.50006M159.236 666.708V666.855M2.63433 823.144H2.50005L2.50006 666.855M2.50006 666.855L2.50006 666.708M2.50006 666.708L2.5 1.99994L666.5 2L666.5 666.855" stroke="url(#paint0_linear_6_45)" stroke-width="5"/>
<defs>
<linearGradient id="paint0_linear_6_45" x1="666.5" y1="1.99999" x2="898.082" y2="824.992" gradientUnits="userSpaceOnUse">
<stop stop-color="#69AD00"/>
<stop offset="1" stop-color="#7744FF"/>
</linearGradient>
</defs>
</svg>
